<?xml version="1.0" encoding="UTF-8"?>
<svg id="web" xmlns="http://www.w3.org/2000/svg" viewBox="0 0 55.57 55.57"><defs><style>.cls-1{fill:#fff;}</style></defs><path class="cls-1" d="M27.78,0c-7.37,0-14.43,2.93-19.65,8.14C2.93,13.35,0,20.41,0,27.78s2.93,14.43,8.14,19.65,12.28,8.14,19.65,8.14,14.43-2.93,19.65-8.14c5.21-5.21,8.14-12.28,8.14-19.65,0-7.37-2.94-14.43-8.15-19.64S35.15,0,27.78,0ZM14.61,6.85c-.62,2.05-1.16,4.1-1.6,6.16-2.05,.44-4.1,.98-6.16,1.6h0c1.98-3.13,4.63-5.78,7.76-7.76h0ZM4.87,18.43c2.47-.86,4.99-1.59,7.55-2.17-.57,3.31-.89,6.66-.97,10.02H3.09c.15-2.7,.75-5.35,1.78-7.85h0Zm0,18.71c-1.03-2.5-1.63-5.15-1.78-7.85H11.45c.06,3.36,.38,6.71,.94,10.02-2.55-.59-5.07-1.31-7.55-2.17h.03Zm1.98,3.82c2.05,.62,4.1,1.16,6.16,1.6,.44,2.05,.98,4.1,1.6,6.16h0c-3.13-1.98-5.78-4.63-7.76-7.76h0Zm19.42,11.51c-2.7-.15-5.35-.75-7.85-1.78-.86-2.47-1.59-4.99-2.17-7.55,3.31,.56,6.66,.87,10.02,.94v8.39Zm0-11.38h0c-3.59-.08-7.17-.45-10.7-1.1-.65-3.53-1.02-7.11-1.1-10.7h11.8v11.8Zm0-14.82H14.47c.08-3.59,.45-7.17,1.1-10.7,3.53-.65,7.11-1.02,10.7-1.1v11.8Zm0-14.82c-3.36,.06-6.71,.38-10.02,.94,.59-2.55,1.31-5.07,2.17-7.55,2.5-1.02,5.15-1.61,7.85-1.75V11.45Zm24.42,6.97c1.03,2.5,1.63,5.15,1.78,7.85h-8.36c-.06-3.36-.38-6.71-.94-10.02,2.55,.59,5.07,1.31,7.55,2.17h-.03Zm-1.98-3.82c-2.05-.62-4.1-1.16-6.16-1.6-.44-2.05-.98-4.1-1.6-6.16h0c3.13,1.98,5.78,4.63,7.76,7.76h0ZM29.29,3.09c2.7,.15,5.35,.75,7.85,1.78,.86,2.47,1.59,4.99,2.17,7.55-3.31-.57-6.66-.89-10.02-.97V3.09Zm0,11.38h0c3.59,.08,7.17,.45,10.7,1.1,.65,3.53,1.02,7.11,1.1,10.7h-11.8V14.47Zm7.85,36.22h0c-2.5,1.03-5.15,1.63-7.85,1.78v-8.36c3.36-.06,6.71-.38,10.02-.94-.59,2.53-1.32,5.03-2.17,7.48v.03Zm-7.85-9.6v-11.8h11.8c-.08,3.59-.45,7.17-1.1,10.7-3.53,.65-7.11,1.02-10.7,1.1h0Zm11.67,7.55c.62-2.05,1.16-4.1,1.6-6.16,2.05-.44,4.1-.98,6.16-1.6h0c-1.97,3.15-4.62,5.83-7.76,7.83v-.08Zm9.73-11.57c-2.47,.86-4.99,1.59-7.55,2.17,.56-3.29,.89-6.61,.97-9.95h8.36c-.15,2.7-.75,5.35-1.78,7.85v-.08Z"/></svg>